<svg width="32" height="20" viewBox="0 0 32 20" fill="none" xmlns="http://www.w3.org/2000/svg">
<mask id="mask0_4791_2712" style="mask-type:alpha" maskUnits="userSpaceOnUse" x="0" y="0" width="32" height="20">
<rect width="32" height="20" fill="#016FD0"/>
</mask>
<g mask="url(#mask0_4791_2712)">
<path d="M0 1.66667C0 0.746192 0.818679 0 1.82857 0H30.1714C31.1813 0 32 0.746192 32 1.66667V18.3333C32 19.2538 31.1813 20 30.1714 20H1.82857C0.818679 20 0 19.2538 0 18.3333V1.66667Z" fill="#016FD0"/>
<path fill-rule="evenodd" clip-rule="evenodd" d="M5.16003 7L2 12.9923H5.78299L6.25198 12.0369H7.32396L7.79294 12.9923H11.957V12.2631L12.328 12.9923H14.482L14.853 12.2477V12.9923H23.513L24.566 12.0617L25.552 12.9923L30 13L26.83 10.0129L30 7H25.621L24.596 7.91341L23.641 7H14.22L13.4111 8.54666L12.5831 7H8.80801V7.7044L8.38805 7H5.16003ZM18.092 7.85092H23.065L24.586 9.25877L26.156 7.85092H27.677L25.366 10.012L27.677 12.1482H26.087L24.566 10.724L22.988 12.1482H18.092V7.85092ZM19.3201 9.52613V8.74044H22.423L23.777 9.99576L22.3631 11.2579H19.3201V10.401H22.033V9.52613H19.3201ZM5.89202 7.85092H7.73602L9.83207 11.9143V7.85092H11.8521L13.4711 10.7644L14.9631 7.85092H16.9731V12.1508H15.75L15.7401 8.78143L13.957 12.1508H12.863L11.07 8.78143V12.1508H8.554L8.07701 11.1868H5.50003L5.02403 12.1499H3.67598L5.89202 7.85092ZM5.94005 10.2957L6.78906 8.57843L7.63709 10.2957H5.94005Z" fill="white"/>
</g>
</svg>
