<svg width="43" height="18" viewBox="0 0 43 18" fill="none" xmlns="http://www.w3.org/2000/svg">
<path d="M8.4051 2.3751C8.90083 1.75503 9.23718 0.92253 9.14853 0.0717773C8.42286 0.10788 7.53732 0.550566 7.02465 1.17105C6.56428 1.70248 6.15687 2.56984 6.26313 3.3849C7.07761 3.45554 7.89152 2.97774 8.4051 2.3751Z" fill="white"/>
<path d="M9.13831 3.54574C7.95532 3.47526 6.94946 4.21713 6.38449 4.21713C5.81926 4.21713 4.95412 3.58126 4.01841 3.59837C2.80055 3.6163 1.67052 4.30488 1.0525 5.40004C-0.218656 7.59094 0.717049 10.8408 1.95317 12.6251C2.55343 13.5079 3.27696 14.4799 4.23018 14.445C5.13085 14.4096 5.4839 13.8618 6.57865 13.8618C7.67266 13.8618 7.99068 14.445 8.94407 14.4273C9.93281 14.4096 10.5509 13.5441 11.1512 12.6604C11.8398 11.6541 12.1217 10.6824 12.1394 10.6291C12.1217 10.6114 10.2329 9.88679 10.2154 7.71414C10.1975 5.89495 11.6983 5.02956 11.7689 4.97594C10.9216 3.72263 9.59736 3.58126 9.13831 3.54574Z" fill="white"/>
<path d="M19.4408 1.07812C22.0121 1.07812 23.8025 2.85052 23.8025 5.43099C23.8025 8.02066 21.9752 9.80227 19.3763 9.80227H16.5295V14.3296H14.4727V1.07812H19.4408ZM16.5294 8.07576H18.8895C20.6803 8.07576 21.6995 7.1116 21.6995 5.4402C21.6995 3.76895 20.6803 2.81384 18.8987 2.81384H16.5294V8.07576Z" fill="white"/>
<path d="M24.3398 11.5851C24.3398 9.89528 25.6347 8.85759 27.9307 8.72906L30.5753 8.57297V7.82921C30.5753 6.75477 29.8498 6.11191 28.6379 6.11191C27.4896 6.11191 26.7734 6.66283 26.5991 7.52616H24.7257C24.8359 5.78123 26.3234 4.49561 28.7112 4.49561C31.0529 4.49561 32.5497 5.73534 32.5497 7.67296V14.3308H30.6487V12.7421H30.6029C30.0428 13.8166 28.8213 14.4961 27.5541 14.4961C25.6623 14.4961 24.3398 13.3206 24.3398 11.5851ZM30.5752 10.7127V9.95054L28.1967 10.0974C27.0121 10.1801 26.3418 10.7036 26.3418 11.5301C26.3418 12.3748 27.0396 12.9259 28.105 12.9259C29.4916 12.9257 30.5752 11.9707 30.5752 10.7127Z" fill="white"/>
<path d="M34.3438 17.8822V16.2751C34.4905 16.3118 34.821 16.3118 34.9864 16.3118C35.9047 16.3118 36.4006 15.9262 36.7035 14.9344C36.7035 14.916 36.8782 14.3467 36.8782 14.3374L33.3887 4.66748H35.5373L37.9804 12.5284H38.0169L40.4599 4.66748H42.5534L38.935 14.8333C38.1088 17.1752 37.1537 17.9281 35.1518 17.9281C34.9864 17.9281 34.4904 17.9097 34.3438 17.8822Z" fill="white"/>
</svg>
