<svg width="32" height="20" viewBox="0 0 32 20" fill="none" xmlns="http://www.w3.org/2000/svg">
<path d="M0 1.66667C0 0.746192 0.818679 0 1.82857 0H30.1714C31.1813 0 32 0.746192 32 1.66667V18.3333C32 19.2538 31.1813 20 30.1714 20H1.82857C0.818679 20 0 19.2538 0 18.3333V1.66667Z" fill="#232342"/>
<path d="M13.9434 19.9997L32.0005 15.208V18.333C32.0005 19.2535 31.1818 19.9997 30.1719 19.9997H13.9434Z" fill="#FD6020"/>
<path fill-rule="evenodd" clip-rule="evenodd" d="M27.5986 8.00888C28.592 8.00888 29.1384 8.41184 29.1384 9.17297C29.188 9.75501 28.741 10.2475 28.145 10.3371L29.4861 11.9936H28.443L27.3005 10.3818H27.2012V11.9936H26.3568V8.00888H27.5986ZM27.2012 9.84455H27.4496C27.9959 9.84455 28.2443 9.62068 28.2443 9.21773C28.2443 8.85955 27.9959 8.63569 27.4496 8.63569H27.2012V9.84455ZM23.4262 11.9936H25.8104V11.322H24.2706V10.2475H25.7607V9.57591H24.2706V8.68046H25.8104V8.00888H23.4262V11.9936ZM20.9426 10.6952L19.8002 8.00888H18.9061L20.744 12.0832H21.191L23.0288 8.00888H22.1347L20.9426 10.6952ZM10.8594 10.0236C10.8594 11.1429 11.8528 12.0832 13.0946 12.0832C13.492 12.0832 13.8397 11.9936 14.1874 11.8593V10.9639C13.939 11.2325 13.5913 11.4116 13.1939 11.4116C12.3992 11.4116 11.7535 10.8743 11.7535 10.158V10.0684C11.7038 9.35205 12.3495 8.72524 13.1443 8.68046C13.5416 8.68046 13.939 8.85955 14.1874 9.12819V8.23274C13.8893 8.05365 13.492 8.00888 13.1443 8.00888C11.8528 7.91933 10.8594 8.85955 10.8594 10.0236ZM9.31959 9.53114C8.82288 9.35205 8.67387 9.26251 8.67387 9.03864C8.72354 8.77001 8.9719 8.54615 9.26992 8.59092C9.51828 8.59092 9.76663 8.72524 9.96532 8.90433L10.4124 8.36706C10.0647 8.09842 9.61762 7.91933 9.17058 7.91933C8.47519 7.87456 7.87913 8.36706 7.82946 8.99387V9.03864C7.82946 9.57591 8.07782 9.88932 8.87255 10.1132C9.07124 10.158 9.26992 10.2475 9.46861 10.337C9.61762 10.4266 9.71696 10.5609 9.71696 10.74C9.71696 11.0534 9.41894 11.322 9.12091 11.322H9.07124C8.67387 11.322 8.32617 11.0982 8.17716 10.7848L7.63078 11.2773C7.9288 11.7698 8.52486 12.0384 9.12091 12.0384C9.91565 12.0832 10.5614 11.5459 10.611 10.8295V10.6952C10.5614 10.158 10.313 9.88932 9.31959 9.53114ZM6.43867 11.9936H7.28308V8.00888H6.43867V11.9936ZM2.51465 8.00888H3.75643H4.00478C5.19689 8.05366 6.14064 8.9491 6.09097 10.0236C6.09097 10.6057 5.79294 11.143 5.29623 11.5459C4.84919 11.8593 4.30281 12.0384 3.75643 11.9936H2.51465V8.00888ZM3.60741 11.322C4.00478 11.3668 4.45182 11.2325 4.74985 11.0086C5.04787 10.74 5.19689 10.3818 5.19689 9.97887C5.19689 9.62069 5.04787 9.26251 4.74985 8.99388C4.45182 8.77001 4.00478 8.6357 3.60741 8.68047H3.35905V11.322H3.60741Z" fill="white"/>
<path fill-rule="evenodd" clip-rule="evenodd" d="M16.7214 7.9165C15.4796 7.9165 14.4365 8.81195 14.4365 9.97604C14.4365 11.0953 15.4299 12.0356 16.7214 12.0803C18.0128 12.1251 19.0063 11.1849 19.0559 10.0208C19.0063 8.85673 18.0128 7.9165 16.7214 7.9165V7.9165Z" fill="#FD6020"/>
</svg>
