<svg width="21" height="20" viewBox="0 0 21 20" fill="none" xmlns="http://www.w3.org/2000/svg">
<g clip-path="url(#clip0_4791_8236)">
<path d="M4.93242 12.0836L4.23625 14.6825L1.69176 14.7363C0.931328 13.3259 0.5 11.7122 0.5 9.99734C0.5 8.3391 0.903281 6.77535 1.61813 5.39844H1.61867L3.88398 5.81375L4.87633 8.06547C4.66863 8.67098 4.55543 9.32098 4.55543 9.99734C4.55551 10.7314 4.68848 11.4347 4.93242 12.0836Z" fill="#FBBB00"/>
<path d="M20.3242 8.13281C20.439 8.73773 20.4989 9.36246 20.4989 10.0009C20.4989 10.7169 20.4236 11.4152 20.2802 12.0889C19.7934 14.3812 18.5214 16.3828 16.7594 17.7993L16.7588 17.7987L13.9055 17.6532L13.5017 15.1323C14.6709 14.4466 15.5847 13.3735 16.066 12.0889H10.7188V8.13281H16.144H20.3242Z" fill="#518EF8"/>
<path d="M16.7595 17.7975L16.7601 17.798C15.0464 19.1755 12.8694 19.9996 10.4996 19.9996C6.69141 19.9996 3.38043 17.8711 1.69141 14.7387L4.93207 12.0859C5.77656 14.3398 7.95074 15.9442 10.4996 15.9442C11.5952 15.9442 12.6216 15.648 13.5024 15.131L16.7595 17.7975Z" fill="#28B446"/>
<path d="M16.882 2.30219L13.6425 4.95437C12.7309 4.38461 11.6534 4.05547 10.4991 4.05547C7.89246 4.05547 5.67762 5.73348 4.87543 8.06812L1.61773 5.40109H1.61719C3.28148 2.1923 6.63422 0 10.4991 0C12.9254 0 15.1502 0.864297 16.882 2.30219Z" fill="#F14336"/>
</g>
<defs>
<clipPath id="clip0_4791_8236">
<rect width="20" height="20" fill="white" transform="translate(0.5)"/>
</clipPath>
</defs>
</svg>
