<svg width="69" height="18" viewBox="0 0 69 18" fill="none" xmlns="http://www.w3.org/2000/svg">
<path d="M53.0873 4.83887H49.4128C49.1966 4.83887 48.9805 5.05502 48.8724 5.27117L47.3594 14.7817C47.3594 14.9979 47.4674 15.106 47.6836 15.106H49.6289C49.8451 15.106 49.9532 14.9979 49.9532 14.7817L50.3855 12.0799C50.3855 11.8637 50.6016 11.6476 50.9258 11.6476H52.1147C54.6004 11.6476 56.0053 10.4587 56.3296 8.08111C56.5457 7.10843 56.3296 6.24384 55.8973 5.70347C55.2488 5.16309 54.2762 4.83887 53.0873 4.83887ZM53.5196 8.40533C53.3035 9.70223 52.3308 9.70223 51.3581 9.70223H50.7097L51.142 7.21651C51.142 7.10844 51.2501 7.00036 51.4662 7.00036H51.6824C52.3308 7.00036 52.9793 7.00036 53.3035 7.43266C53.5196 7.54073 53.5196 7.86496 53.5196 8.40533Z" fill="#139AD6"/>
<path d="M26.6108 4.83887H22.9362C22.7201 4.83887 22.5039 5.05502 22.3959 5.27117L20.8828 14.7817C20.8828 14.9979 20.9909 15.106 21.207 15.106H22.9362C23.1524 15.106 23.3685 14.8898 23.4766 14.6737L23.9089 12.0799C23.9089 11.8637 24.1251 11.6476 24.4493 11.6476H25.6381C28.1238 11.6476 29.5288 10.4587 29.853 8.08111C30.0692 7.10843 29.853 6.24384 29.4207 5.70347C28.7723 5.16309 27.9077 4.83887 26.6108 4.83887ZM27.0431 8.40533C26.8269 9.70223 25.8542 9.70223 24.8816 9.70223H24.3412L24.7735 7.21651C24.7735 7.10844 24.8816 7.00036 25.0977 7.00036H25.3139C25.9623 7.00036 26.6108 7.00036 26.935 7.43266C27.0431 7.54073 27.1511 7.86496 27.0431 8.40533Z" fill="#263B80"/>
<path d="M37.741 8.2972H36.0118C35.9037 8.2972 35.6876 8.40528 35.6876 8.51335L35.5795 9.05373L35.4714 8.83758C35.0392 8.2972 34.2826 8.08105 33.418 8.08105C31.4727 8.08105 29.7435 9.5941 29.4193 11.6475C29.2031 12.7283 29.5273 13.7009 30.0677 14.3494C30.6081 14.9978 31.3646 15.214 32.3373 15.214C33.9584 15.214 34.823 14.2413 34.823 14.2413L34.7149 14.7817C34.7149 14.9978 34.823 15.1059 35.0391 15.1059H36.6603C36.8764 15.1059 37.0926 14.8898 37.2006 14.6736L38.1733 8.62143C38.0652 8.51335 37.8491 8.2972 37.741 8.2972ZM35.2553 11.7556C35.0391 12.7283 34.2826 13.4848 33.2019 13.4848C32.6615 13.4848 32.2292 13.2686 32.0131 13.0525C31.7969 12.7283 31.6888 12.296 31.6888 11.7556C31.7969 10.7829 32.6615 10.0264 33.6342 10.0264C34.1746 10.0264 34.4988 10.2425 34.823 10.4587C35.1472 10.7829 35.2553 11.3233 35.2553 11.7556Z" fill="#263B80"/>
<path d="M64.1121 8.2972H62.3829C62.2748 8.2972 62.0587 8.40528 62.0587 8.51335L61.9506 9.05373L61.8425 8.83758C61.4102 8.2972 60.6537 8.08105 59.7891 8.08105C57.8438 8.08105 56.1146 9.5941 55.7904 11.6475C55.5742 12.7283 55.8984 13.7009 56.4388 14.3494C56.9792 14.9978 57.7357 15.214 58.7084 15.214C60.3295 15.214 61.1941 14.2413 61.1941 14.2413L61.086 14.7817C61.086 14.9978 61.1941 15.1059 61.4102 15.1059H63.0314C63.2475 15.1059 63.4637 14.8898 63.5717 14.6736L64.5444 8.62143C64.4363 8.51335 64.3283 8.2972 64.1121 8.2972ZM61.6264 11.7556C61.4102 12.7283 60.6537 13.4848 59.573 13.4848C59.0326 13.4848 58.6003 13.2686 58.3841 13.0525C58.168 12.7283 58.0599 12.296 58.0599 11.7556C58.168 10.7829 59.0326 10.0264 60.0053 10.0264C60.5456 10.0264 60.8699 10.2425 61.1941 10.4587C61.6264 10.7829 61.7345 11.3233 61.6264 11.7556Z" fill="#139AD6"/>
<path d="M47.146 8.29736H45.3087C45.0925 8.29736 44.9845 8.40544 44.8764 8.51351L42.4988 12.1881L41.418 8.72966C41.3099 8.51351 41.2019 8.40544 40.8776 8.40544H39.1484C38.9323 8.40544 38.8242 8.62159 38.8242 8.83774L40.7696 14.5657L38.9323 17.1595C38.8242 17.3756 38.9323 17.6999 39.1484 17.6999H40.8776C41.0938 17.6999 41.2019 17.5918 41.3099 17.4837L47.254 8.94581C47.5783 8.62159 47.3621 8.29736 47.146 8.29736Z" fill="#263B80"/>
<path d="M66.1654 5.16285L64.6523 14.8896C64.6523 15.1057 64.7604 15.2138 64.9766 15.2138H66.4896C66.7058 15.2138 66.9219 14.9976 67.03 14.7815L68.543 5.27092C68.543 5.05477 68.435 4.94669 68.2188 4.94669H66.4896C66.3815 4.83862 66.2735 4.9467 66.1654 5.16285Z" fill="#139AD6"/>
<path d="M12.8856 1.5967C12.1291 0.732102 10.7241 0.299805 8.77878 0.299805H3.37505C3.05082 0.299805 2.7266 0.624027 2.61852 0.948251L0.457031 15.106C0.457031 15.4303 0.673181 15.6464 0.88933 15.6464H4.23964L5.10424 10.3507V10.5669C5.21232 10.2427 5.53654 9.91844 5.86076 9.91844H7.48188C10.616 9.91844 12.9937 8.62155 13.7502 5.05509C13.7502 4.94701 13.7502 4.83894 13.7502 4.73086C13.6421 4.73086 13.6421 4.73086 13.7502 4.73086C13.8583 3.32589 13.6421 2.4613 12.8856 1.5967Z" fill="#263B80"/>
<path d="M13.6408 4.73096C13.6408 4.83903 13.6408 4.94711 13.6408 5.05518C12.8843 8.72972 10.5066 9.91854 7.37245 9.91854H5.75133C5.42711 9.91854 5.10288 10.2428 4.99481 10.567L3.91406 17.1595C3.91406 17.3757 4.02214 17.5918 4.34636 17.5918H7.1563C7.48053 17.5918 7.80475 17.3757 7.80475 17.0515V16.9434L8.34512 13.5931V13.3769C8.34512 13.0527 8.66935 12.8366 8.99357 12.8366H9.42587C12.1277 12.8366 14.2892 11.7558 14.8296 8.51357C15.0457 7.21667 14.9377 6.02785 14.2892 5.27133C14.1812 5.05518 13.965 4.83903 13.6408 4.73096Z" fill="#139AD6"/>
<path d="M12.8868 4.40674C12.7788 4.40674 12.6707 4.29867 12.5626 4.29867C12.4545 4.29867 12.3465 4.29867 12.2384 4.19059C11.8061 4.08252 11.3738 4.08252 10.8334 4.08252H6.61851C6.51044 4.08252 6.40236 4.08252 6.29429 4.19059C6.07814 4.29867 5.97007 4.51482 5.97007 4.73097L5.10547 10.3508V10.567C5.21354 10.2428 5.53777 9.91855 5.86199 9.91855H7.48311C10.6173 9.91855 12.9949 8.62165 13.7514 5.05519C13.7514 4.94712 13.7514 4.83904 13.8595 4.73097C13.6434 4.62289 13.5353 4.51482 13.3191 4.51482C12.9949 4.40674 12.9949 4.40674 12.8868 4.40674Z" fill="#232C65"/>
</svg>
