<svg width="76" height="16" viewBox="0 0 76 16" fill="none" xmlns="http://www.w3.org/2000/svg">
<path fill-rule="evenodd" clip-rule="evenodd" d="M39.7005 5.65757C39.7763 5.18278 39.8521 4.45628 39.8521 3.95542C39.8521 2.15118 39.0248 0.948473 36.6706 0.948731C34.8939 0.948731 33.6416 1.62587 32.6905 2.25197L32.6395 1.17436H28.6082L26.4803 14.6753H31.1381L32.6148 5.20775C33.0153 5.00678 33.6167 4.73155 34.2167 4.73155C34.6685 4.73155 35.0442 4.88156 35.0442 5.48288C35.0442 5.65968 35.0064 5.93661 34.9755 6.16307C34.9626 6.2574 34.9509 6.34297 34.9436 6.4089L33.6417 14.6752H38.2734L39.7005 5.65757ZM13.1013 0.948731C13.6022 1.77577 13.828 2.62763 13.828 3.70369C13.828 7.13579 10.8976 11.5943 8.51921 14.7251H3.08687L0.908203 1.70018L5.6648 1.24867L6.81668 10.5167C7.893 8.76362 9.22117 6.00869 9.22117 4.13039C9.22117 3.10228 9.04502 2.402 8.76969 1.8254L13.1013 0.948731ZM19.266 6.6848C20.1413 6.6848 22.3449 6.28445 22.3449 5.03224C22.3449 4.43096 21.9197 4.13103 21.4186 4.13103C20.5419 4.13103 19.3914 5.18215 19.266 6.6848ZM19.1657 9.16478C19.1657 10.6938 20.0161 11.2936 21.1434 11.2936C22.371 11.2936 23.5464 10.9937 25.0742 10.2174L24.4988 14.1242C23.4223 14.65 21.7448 15.0009 20.1165 15.0009C15.9861 15.0009 14.5079 12.4964 14.5079 9.36557C14.5079 5.30765 16.9124 0.998865 21.8699 0.998865C24.5993 0.998865 26.1255 2.52773 26.1255 4.65658C26.1258 8.08857 21.7201 9.13995 19.1657 9.16478ZM53.604 2.47682C54.9307 1.52597 56.1832 0.998865 57.9101 0.998865C60.2883 0.998865 61.1155 2.20157 61.1155 4.00581C61.1155 4.50671 61.0397 5.23321 60.9643 5.708L59.5386 14.7256H54.9056L56.2326 6.28459C56.2411 6.20544 56.253 6.12018 56.2648 6.03531C56.2867 5.87823 56.3084 5.72246 56.3084 5.60912C56.3084 4.93209 55.9325 4.78194 55.4808 4.78194C54.9056 4.78194 54.3305 5.03238 53.9034 5.25814L52.4269 14.7257H47.7954L49.1221 6.2847C49.1304 6.2073 49.1418 6.12407 49.1531 6.04107L49.1531 6.04097C49.1749 5.88204 49.1965 5.72394 49.1965 5.60926C49.1965 4.93223 48.8202 4.78208 48.3702 4.78208C47.769 4.78208 47.1688 5.05731 46.7682 5.25828L45.2903 14.7259H40.6341L42.7619 1.22488H46.7439L46.8691 2.35198C47.7954 1.67652 49.0466 0.999379 50.7241 0.999379C52.1766 0.998865 53.1273 1.62509 53.604 2.47682ZM69.2306 4.55575C70.0562 4.55575 70.3319 5.30718 70.3319 6.40935C70.3319 8.06201 69.9313 11.4693 68.2038 11.4693C67.3782 11.4693 67.0274 10.6933 67.0274 9.43944C67.0274 7.78663 67.4029 4.55575 69.2306 4.55575ZM69.7568 0.998425C64.5734 0.998425 62.3204 4.9823 62.3204 9.23992C62.3204 12.4709 63.6223 15.0512 67.5531 15.0512C72.8617 15.0512 75.0904 10.6932 75.0904 6.48495C75.0904 3.30342 73.6626 0.998425 69.7568 0.998425Z" fill="white"/>
</svg>
