<svg width="43" height="18" viewBox="0 0 43 18" fill="none" xmlns="http://www.w3.org/2000/svg">
<path d="M8.4051 2.3751C8.90083 1.75503 9.23718 0.92253 9.14853 0.0717773C8.42286 0.10788 7.53732 0.550566 7.02465 1.17105C6.56428 1.70248 6.15687 2.56984 6.26313 3.3849C7.07761 3.45554 7.89152 2.97774 8.4051 2.3751Z" fill="black"/>
<path d="M9.13929 3.54574C7.95629 3.47526 6.95044 4.21713 6.38546 4.21713C5.82024 4.21713 4.9551 3.58126 4.01939 3.59837C2.80153 3.6163 1.67149 4.30488 1.05347 5.40004C-0.217679 7.59094 0.718026 10.8408 1.95415 12.6251C2.5544 13.5079 3.27793 14.4799 4.23115 14.445C5.13183 14.4096 5.48487 13.8618 6.57963 13.8618C7.67364 13.8618 7.99166 14.445 8.94504 14.4273C9.93379 14.4096 10.5519 13.5441 11.1521 12.6604C11.8408 11.6541 12.1227 10.6824 12.1404 10.6291C12.1226 10.6114 10.2339 9.88679 10.2164 7.71414C10.1985 5.89495 11.6993 5.02956 11.7699 4.97594C10.9225 3.72263 9.59834 3.58126 9.13929 3.54574Z" fill="black"/>
<path d="M19.4408 1.07812C22.0121 1.07812 23.8025 2.85052 23.8025 5.43099C23.8025 8.02066 21.9752 9.80227 19.3763 9.80227H16.5295V14.3296H14.4727V1.07812H19.4408ZM16.5294 8.07576H18.8895C20.6803 8.07576 21.6995 7.1116 21.6995 5.4402C21.6995 3.76895 20.6803 2.81384 18.8987 2.81384H16.5294V8.07576Z" fill="black"/>
<path d="M24.3398 11.5851C24.3398 9.89528 25.6347 8.85759 27.9307 8.72906L30.5753 8.57297V7.82921C30.5753 6.75477 29.8498 6.11191 28.6379 6.11191C27.4896 6.11191 26.7734 6.66283 26.5991 7.52616H24.7257C24.8359 5.78123 26.3234 4.49561 28.7112 4.49561C31.0529 4.49561 32.5497 5.73534 32.5497 7.67296V14.3308H30.6487V12.7421H30.6029C30.0428 13.8166 28.8213 14.4961 27.5541 14.4961C25.6623 14.4961 24.3398 13.3206 24.3398 11.5851ZM30.5752 10.7127V9.95054L28.1967 10.0974C27.0121 10.1801 26.3418 10.7036 26.3418 11.5301C26.3418 12.3748 27.0396 12.9259 28.105 12.9259C29.4916 12.9257 30.5752 11.9707 30.5752 10.7127Z" fill="black"/>
<path d="M34.3438 17.8822V16.2751C34.4905 16.3118 34.821 16.3118 34.9864 16.3118C35.9047 16.3118 36.4006 15.9262 36.7035 14.9344C36.7035 14.916 36.8782 14.3467 36.8782 14.3374L33.3887 4.66748H35.5373L37.9804 12.5284H38.0169L40.4599 4.66748H42.5534L38.935 14.8333C38.1088 17.1752 37.1537 17.9281 35.1518 17.9281C34.9864 17.9281 34.4904 17.9097 34.3438 17.8822Z" fill="black"/>
</svg>
