<svg width="21" height="20" viewBox="0 0 21 20" fill="none" xmlns="http://www.w3.org/2000/svg">
<circle cx="10.5" cy="10" r="10" fill="#011327"/>
<g clip-path="url(#clip0_4791_8241)">
<path d="M12.7662 4.00244C12.7901 4.00244 12.8141 4.00244 12.8394 4.00244C12.8981 4.72781 12.6212 5.26981 12.2847 5.6623C11.9546 6.05209 11.5025 6.43013 10.7712 6.37277C10.7224 5.65779 10.9998 5.15599 11.3358 4.7644C11.6474 4.39945 12.2188 4.07471 12.7662 4.00244Z" fill="white"/>
<path d="M14.9793 11.5487C14.9793 11.5559 14.9793 11.5622 14.9793 11.569C14.7738 12.1914 14.4807 12.7248 14.123 13.2198C13.7964 13.6693 13.3962 14.274 12.6817 14.274C12.0643 14.274 11.6542 13.877 11.0214 13.8662C10.352 13.8553 9.98393 14.1981 9.37193 14.2844C9.30192 14.2844 9.23191 14.2844 9.16326 14.2844C8.71386 14.2194 8.35117 13.8635 8.08695 13.5428C7.30783 12.5952 6.70576 11.3712 6.59375 9.80482C6.59375 9.65126 6.59375 9.49815 6.59375 9.34458C6.64117 8.22355 7.18588 7.3121 7.9099 6.87037C8.292 6.63551 8.81729 6.43542 9.40219 6.52485C9.65286 6.56369 9.90895 6.64951 10.1334 6.73442C10.3462 6.81617 10.6122 6.96115 10.8642 6.95348C11.0349 6.94851 11.2048 6.85953 11.3769 6.79675C11.8809 6.61473 12.375 6.40606 13.0263 6.50407C13.8091 6.62241 14.3646 6.97019 14.7079 7.50676C14.0457 7.92817 13.5223 8.5632 13.6117 9.64765C13.6912 10.6327 14.2639 11.209 14.9793 11.5487Z" fill="white"/>
</g>
<defs>
<clipPath id="clip0_4791_8241">
<rect width="10.2857" height="10.2857" fill="white" transform="translate(5.64453 4.00244)"/>
</clipPath>
</defs>
</svg>
