<svg width="21" height="20" viewBox="0 0 21 20" fill="none" xmlns="http://www.w3.org/2000/svg">
<g clip-path="url(#clip0_4791_8233)">
<path d="M18 2.5H3C2.33696 2.5 1.70107 2.76339 1.23223 3.23223C0.763392 3.70107 0.5 4.33696 0.5 5L0.5 6.66667H20.5V5C20.5 4.33696 20.2366 3.70107 19.7678 3.23223C19.2989 2.76339 18.663 2.5 18 2.5Z" fill="#011327"/>
<path d="M0.5 17.5026H20.5V8.33594H0.5V17.5026ZM6.33333 12.9193C6.33333 13.1665 6.26002 13.4082 6.12267 13.6137C5.98532 13.8193 5.7901 13.9795 5.56169 14.0741C5.33328 14.1687 5.08195 14.1935 4.83947 14.1452C4.59699 14.097 4.37427 13.978 4.19945 13.8031C4.02463 13.6283 3.90558 13.4056 3.85735 13.1631C3.80912 12.9207 3.83387 12.6693 3.92848 12.4409C4.02309 12.2125 4.18331 12.0173 4.38887 11.8799C4.59443 11.7426 4.83611 11.6693 5.08333 11.6693C5.41485 11.6693 5.7328 11.801 5.96722 12.0354C6.20164 12.2698 6.33333 12.5877 6.33333 12.9193Z" fill="#011327"/>
</g>
<defs>
<clipPath id="clip0_4791_8233">
<rect width="20" height="20" fill="white" transform="translate(0.5)"/>
</clipPath>
</defs>
</svg>
