<svg width="21" height="20" viewBox="0 0 21 20" fill="none" xmlns="http://www.w3.org/2000/svg">
<g clip-path="url(#clip0_4791_8248)">
<path d="M17.3754 5.16719C17.408 4.89199 17.425 4.6118 17.425 4.32746C17.425 1.9375 15.562 0 13.264 0H6.31001C5.87258 0 5.49912 0.328516 5.42656 0.777109L2.86421 16.616C2.77226 17.1843 3.19353 17.7023 3.74766 17.7023H6.29089C6.72831 17.7023 7.1088 17.374 7.18132 16.9254C7.18132 16.9254 7.18557 16.8991 7.19323 16.8517H7.19327L6.83885 19.0426C6.75787 19.5435 7.12915 20 7.61755 20H9.8425C10.2281 20 10.5572 19.7104 10.6212 19.315L11.2533 15.408C11.3622 14.7345 11.9229 14.2413 12.5795 14.2413H13.164C16.339 14.2413 18.9128 11.5646 18.9128 8.26266C18.9128 6.98496 18.3055 5.85555 17.3754 5.16719Z" fill="#002987"/>
<path d="M17.3797 5.17188C16.9818 8.53824 14.223 11.1449 10.8786 11.1449H8.93801C8.50002 11.1449 8.12175 11.4483 8.0031 11.8773L6.84317 19.0472C6.76215 19.5481 7.13343 20.0047 7.62183 20.0047H9.84678C10.2323 20.0047 10.5615 19.7151 10.6254 19.3197L11.2575 15.4127C11.3665 14.7392 11.9272 14.246 12.5838 14.246H13.1683C16.3433 14.246 18.9171 11.5693 18.9171 8.26734C18.9171 6.98965 18.3098 5.86023 17.3797 5.17188Z" fill="#0085CC"/>
<path d="M8.93495 11.144H10.8755C14.22 11.144 16.9787 8.53734 17.3766 5.17102C16.7799 4.72938 16.0506 4.46875 15.2624 4.46875H10.1974C9.62072 4.46875 9.12834 4.90184 9.03264 5.49324L8 11.8764C8.11865 11.4474 8.49696 11.144 8.93495 11.144Z" fill="#00186A"/>
</g>
<defs>
<clipPath id="clip0_4791_8248">
<rect width="20" height="20" fill="white" transform="translate(0.5)"/>
</clipPath>
</defs>
</svg>
